<svg id="Layer_1" data-name="Layer 1" xmlns="http://www.w3.org/2000/svg" viewBox="0 0 274 121">
  <defs>
    <style>
      .cls-1,.cls-3,.cls-5,.cls-6{fill:none;}.cls-1,.cls-4,.cls-5{stroke:#000;}.cls-1,.cls-3,.cls-4,.cls-5,.cls-6{stroke-miterlimit:10;}.cls-1{stroke-width:4px;}.cls-2{font-size:60px;font-family:Geneva, Geneva;}.cls-3,.cls-6{stroke:#f7931e;}.cls-3,.cls-5{stroke-width:3px;}.cls-4{fill:#fff;stroke-width:5px;}.cls-6{stroke-width:7px;}.cls-7{fill:#f7931e;}
    </style>
  </defs>
  <title>t2 hangmanLogoWords</title>
  <line class="cls-1" x1="132.5" y1="86.5" x2="148.5" y2="89.5"/>
  <line class="cls-1" x1="132.5" y1="85.5" x2="127.5" y2="102.5"/>
  <line class="cls-1" x1="126.5" y1="77.5" x2="142.5" y2="100.5"/>
  <text class="cls-2" transform="translate(0.33 88.67)">
    <tspan xml:space="preserve">Han  man</tspan>
  </text>
  <path class="cls-3" d="M138.12,34.66c22.12,5-1.68,75.61-18.34,39.58S121,30.78,138.12,34.66Z"/>
  <circle class="cls-4" cx="129" cy="62" r="19.5"/>
  <line class="cls-5" x1="117.5" y1="58.5" x2="123.5" y2="65.5"/>
  <line class="cls-5" x1="123.5" y1="58.5" x2="116.5" y2="65.5"/>
  <line class="cls-5" x1="131.5" y1="58.5" x2="139.5" y2="64.5"/>
  <line class="cls-5" x1="139.5" y1="58.5" x2="131.5" y2="65.5"/>
  <line class="cls-1" x1="163.5" y1="98.5" x2="142.5" y2="100.5"/>
  <line class="cls-1" x1="147.65" y1="117.21" x2="142.35" y2="100.79"/>
  <line class="cls-6" x1="129.09" y1="33.86" x2="129.5" y2="5"/>
  <path class="cls-7" d="M126.89,35.5h7.21a6,6,0,0,0,0-12h-7.21a6,6,0,0,0,0,12Z"/>
  <path class="cls-7" d="M124.47,24.68l6,3c2.8,1.4,6.63.84,8.21-2.15,1.44-2.72.84-6.71-2.15-8.21l-6-3c-2.8-1.4-6.63-.84-8.21,2.15-1.44,2.72-.84,6.71,2.15,8.21Z"/>
</svg>
